<?xml version="1.0" standalone="no"?>
<!DOCTYPE svg PUBLIC "-//W3C//DTD SVG 20010904//EN"
 "http://www.w3.org/TR/2001/REC-SVG-20010904/DTD/svg10.dtd">
<svg version="1.0" xmlns="http://www.w3.org/2000/svg"
 width="416.000000pt" height="415.000000pt" viewBox="0 0 416.000000 415.000000"
 preserveAspectRatio="xMidYMid meet">

<g transform="translate(0.000000,415.000000) scale(0.100000,-0.100000)"
fill="#000000" stroke="none">
<path d="M1340 3450 c0 -5 -20 -10 -45 -10 -33 0 -45 -4 -45 -15 0 -10 -10
-15 -30 -15 -20 0 -30 -5 -30 -15 0 -8 -7 -15 -15 -15 -8 0 -15 -7 -15 -15 0
-8 -7 -15 -15 -15 -8 0 -15 -7 -15 -15 0 -8 -7 -15 -15 -15 -8 0 -15 -7 -15
-15 0 -8 -7 -15 -15 -15 -10 0 -15 -10 -15 -30 0 -20 -5 -30 -15 -30 -11 0
-15 -12 -15 -45 0 -25 -4 -45 -10 -45 -7 0 -10 -355 -10 -1045 0 -690 3 -1045
10 -1045 6 0 10 -20 10 -45 0 -33 4 -45 15 -45 10 0 15 -10 15 -30 0 -20 5
-30 15 -30 8 0 15 -7 15 -15 0 -8 7 -15 15 -15 8 0 15 -7 15 -15 0 -8 7 -15
15 -15 8 0 15 -7 15 -15 0 -8 7 -15 15 -15 8 0 15 -7 15 -15 0 -10 10 -15 30
-15 20 0 30 -5 30 -15 0 -11 12 -15 45 -15 25 0 45 -4 45 -10 0 -7 309 -10
906 -10 771 0 908 2 920 14 12 12 14 159 14 995 0 647 -3 981 -10 981 -5 0
-10 7 -10 15 0 13 -105 15 -885 15 -780 0 -885 2 -885 15 0 11 -12 15 -45 15
-33 0 -45 4 -45 15 0 8 -7 15 -15 15 -8 0 -15 7 -15 15 0 8 -7 15 -15 15 -8 0
-15 7 -15 15 0 8 -7 15 -15 15 -10 0 -15 10 -15 30 0 20 -5 30 -15 30 -12 0
-15 19 -15 110 0 91 3 110 15 110 8 0 15 7 15 15 0 8 7 15 15 15 10 0 15 10
15 30 0 27 3 30 30 30 20 0 30 5 30 15 0 8 7 15 15 15 8 0 15 7 15 15 0 13
107 15 900 15 793 0 900 2 900 15 0 9 9 15 25 15 23 0 25 3 25 51 0 30 -6 56
-14 65 -12 12 -149 14 -920 14 -597 0 -906 -3 -906 -10z m-134 -780 c8 0 14
-7 14 -15 0 -10 10 -15 30 -15 20 0 30 -5 30 -15 0 -13 103 -15 870 -15 l870
0 0 -860 0 -860 -845 0 c-744 0 -845 2 -845 15 0 8 -7 15 -15 15 -8 0 -15 7
-15 15 0 10 -10 15 -30 15 -27 0 -30 3 -30 30 0 20 -5 30 -15 30 -8 0 -15 7
-15 15 0 8 -7 15 -15 15 -13 0 -15 99 -14 833 1 457 3 824 6 815 2 -10 11 -18
19 -18z"/>
<path d="M2150 2245 c10 -12 10 -19 2 -27 -19 -19 -14 -26 21 -33 87 -18 192
-72 250 -131 48 -48 87 -98 87 -111 0 -7 4 -13 9 -13 5 0 12 -18 16 -40 4 -22
11 -42 16 -46 5 -3 9 -23 9 -45 0 -21 5 -39 10 -39 6 0 10 -18 10 -39 0 -22
-4 -43 -10 -46 -5 -3 -10 -20 -10 -36 0 -17 -7 -44 -16 -60 -9 -18 -12 -38 -8
-47 4 -10 6 -21 5 -26 -1 -5 5 -6 14 -2 9 3 19 6 21 6 2 0 4 9 4 20 0 11 5 20
10 20 6 0 10 10 10 23 0 16 -3 18 -9 8 -6 -9 -10 -10 -16 -2 -4 7 -2 17 3 24
6 7 9 64 8 132 -1 66 2 125 6 132 5 6 5 19 0 30 -79 164 -129 225 -233 289
-55 33 -166 74 -203 74 -15 0 -16 -2 -6 -15z"/>
<path d="M1950 2240 c-183 -39 -321 -162 -386 -345 -24 -67 -29 -96 -29 -180
0 -55 6 -115 13 -132 6 -18 17 -47 24 -64 11 -30 12 -30 19 -10 5 12 17 21 29
21 21 0 27 19 10 36 -5 5 -14 42 -20 82 -11 72 -2 188 19 230 45 93 63 121
111 171 53 55 137 111 190 126 50 13 100 43 100 61 0 3 -7 1 -15 -6 -9 -7 -19
-10 -22 -6 -4 4 -1 11 7 16 13 9 13 10 0 9 -8 -1 -31 -5 -50 -9z"/>
<path d="M1820 1868 c0 -101 3 -213 7 -250 l6 -68 33 0 34 0 0 83 c0 45 4 88
9 96 10 16 24 8 165 -108 43 -35 93 -67 110 -70 29 -6 31 -11 37 -56 3 -28 7
-38 7 -24 1 15 9 30 18 33 22 9 32 -3 14 -14 -10 -7 -11 -10 -2 -10 6 0 12 -7
12 -15 0 -8 4 -15 9 -15 6 0 11 21 13 48 l3 47 53 3 c52 3 52 3 52 37 0 34 0
34 -52 37 l-53 3 -1 45 c0 44 -1 45 -37 48 l-37 3 0 -50 c0 -49 -1 -51 -28
-51 -20 0 -41 15 -81 55 -53 55 -61 85 -24 85 71 0 118 126 78 207 -33 67 -79
83 -231 83 l-114 0 0 -182z m250 72 c22 -22 25 -46 10 -84 -9 -25 -13 -26 -90
-26 l-80 0 0 58 c0 32 3 62 7 65 3 4 35 7 70 7 50 0 67 -4 83 -20z"/>
<path d="M2602 1820 c0 -14 2 -19 5 -12 2 6 2 18 0 25 -3 6 -5 1 -5 -13z"/>
<path d="M2601 1634 c0 -11 3 -14 6 -6 3 7 2 16 -1 19 -3 4 -6 -2 -5 -13z"/>
<path d="M1649 1409 c-10 -19 -5 -27 37 -70 89 -90 213 -148 354 -164 57 -6
195 16 214 35 6 6 18 10 29 10 22 0 143 77 175 112 20 22 22 32 16 64 -4 22
-9 32 -12 24 -7 -20 -59 -69 -108 -101 -60 -40 -187 -79 -255 -79 -64 0 -158
17 -174 31 -5 5 -16 9 -24 9 -21 0 -131 74 -171 115 -39 40 -64 44 -81 14z
m811 -49 c0 -5 -4 -10 -10 -10 -5 0 -10 5 -10 10 0 6 5 10 10 10 6 0 10 -4 10
-10z m-30 -29 c0 -5 -6 -14 -14 -20 -12 -10 -13 -8 -9 8 5 21 23 30 23 12z"/>
<path d="M1430 3095 c0 -8 -7 -15 -15 -15 -12 0 -15 -13 -15 -55 0 -42 3 -55
15 -55 8 0 15 -7 15 -15 0 -13 98 -15 820 -15 722 0 820 2 820 15 0 8 7 15 15
15 12 0 15 13 15 55 0 42 -3 55 -15 55 -8 0 -15 7 -15 15 0 13 -98 15 -820 15
-722 0 -820 -2 -820 -15z"/>
</g>
</svg>
